<?xml version='1.0' encoding='utf-8'?>
<svg xmlns="http://www.w3.org/2000/svg" height="500.000000pt" preserveAspectRatio="xMidYMid meet" version="1.0" viewBox="0 0 891.000000 500.000000" width="891.000000pt">

<g stroke="none" transform="translate(0.000000,500.000000) scale(0.100000,-0.100000)">
<path d="M1146 3092 c-5 -9 -482 -1130 -497 -1169 l-9 -23 208 0 207 0 129 250 c72 138 133 245 136 239 4 -5 33 -116 66 -245 l59 -234 228 2 229 3 297 593 297 592 -205 0 -206 0 -149 -305 c-83 -168 -153 -305 -156 -305 -6 0 -63 234 -128 525 l-18 80 -241 3 c-133 1 -244 -1 -247 -6z" fill="#005DAA" />
<path d="m476 -472 c37 -28 51 -72 46 -135 -6 -69 -32 -107 -82 -119 -30 -8 -41 -6 -64 10 -77 57 -82 198 -8 249 29 21 79 19 108 -5z" fill="#70B92B" /><path d="M3773 3045 c-143 -39 -184 -85 -316 -355 -55 -112 -102 -220 -104 -240 -10 -78 27 -115 132 -131 118 -19 238 14 324 88 35 29 62 76 154 261 97 195 112 231 112 274 0 43 -4 53 -29 73 -56 45 -171 57 -273 30z m90 -121 c-3 -34 -221 -467 -244 -486 -25 -22 -48 -23 -55 -4 -6 16 214 473 240 499 25 24 62 19 59 -9z" fill="#005DAA" />
<path d="M5341 3044 c-74 -20 -145 -60 -186 -106 -19 -21 -81 -130 -136 -242 -116 -232 -130 -287 -89 -331 33 -35 84 -49 175 -48 90 0 155 19 228 65 49 31 78 68 136 171 l32 57 -113 0 -114 0 -37 -75 c-38 -77 -79 -117 -99 -97 -18 18 2 66 115 287 85 167 107 201 130 209 52 18 52 -4 3 -103 -25 -50 -46 -93 -46 -96 0 -3 49 -5 109 -5 l109 0 37 78 c49 100 56 164 24 198 -47 50 -171 67 -278 38z" fill="#005DAA" />
<path d="M2991 3011 c-30 -59 -321 -672 -321 -677 0 -2 43 -4 95 -4 l96 0 74 153 75 152 -5 -65 c-3 -36 -8 -104 -11 -152 l-7 -88 100 0 100 0 167 350 c91 192 166 354 166 360 0 6 -35 10 -93 10 l-92 0 -70 -147 c-66 -142 -94 -192 -82 -148 3 11 9 82 13 158 l6 137 -96 0 -96 0 -19 -39z" fill="#005DAA" />
<path d="M4179 3008 c-6 -24 -51 -184 -100 -356 -49 -172 -89 -314 -89 -317 0 -3 80 -5 178 -5 l177 1 208 327 c114 180 217 342 228 360 l21 32 -124 0 -123 0 -134 -230 c-74 -127 -137 -233 -141 -235 -4 -2 29 97 72 221 43 124 78 230 78 235 0 5 -54 9 -120 9 l-119 0 -12 -42z" fill="#005DAA" />
<path d="M4735 2823 c-60 -126 -137 -288 -171 -360 l-63 -133 117 0 117 0 165 351 c91 192 167 354 168 359 2 6 -42 10 -111 10 l-114 0 -108 -227z" fill="#005DAA" />
<path d="M5907 3031 c-75 -25 -131 -64 -168 -117 -49 -72 -220 -427 -226 -470 -9 -66 15 -100 84 -120 82 -24 201 -15 281 21 99 44 138 95 247 319 52 108 100 215 106 239 16 57 -2 95 -56 122 -57 28 -190 31 -268 6z m117 -100 c7 -11 -214 -469 -238 -493 -20 -21 -66 -24 -66 -5 0 15 207 442 232 480 19 27 61 37 72 18z" fill="#005DAA" />
<path d="M6215 2683 c-93 -197 -170 -361 -172 -365 -2 -5 40 -8 95 -8 l99 0 104 219 c57 121 105 218 107 216 2 -1 -24 -95 -57 -207 -34 -112 -61 -210 -61 -217 0 -8 19 -11 68 -9 l67 3 143 224 c78 123 142 221 142 218 0 -4 -45 -102 -100 -218 -55 -117 -100 -216 -100 -221 0 -5 44 -7 97 -6 l97 3 168 355 c92 195 168 358 168 363 0 4 -65 7 -144 7 l-145 0 -88 -141 c-48 -78 -96 -151 -105 -162 -18 -22 -18 -22 -8 8 37 118 80 270 80 281 0 11 -28 14 -143 14 l-143 0 -169 -357z" fill="#005DAA" />
<path d="M7091 2849 c-52 -107 -131 -272 -177 -366 l-83 -173 115 0 114 0 69 145 70 145 68 0 c83 0 161 22 202 55 29 25 118 187 140 257 17 53 -1 89 -54 106 -23 8 -111 16 -205 19 l-166 6 -93 -194z m308 52 c12 -8 9 -22 -22 -84 -30 -61 -43 -77 -69 -86 -17 -6 -33 -11 -34 -11 -12 0 1 41 36 110 40 80 55 92 89 71z" fill="#005DAA" />
<path d="M7610 2759 c-139 -279 -158 -327 -146 -373 14 -58 145 -95 265 -77 81 13 180 60 220 107 18 19 97 166 176 325 l145 289 -115 0 -115 0 -150 -299 c-112 -224 -155 -300 -170 -304 -14 -4 -23 0 -27 10 -4 10 51 130 136 300 78 156 139 288 136 294 -4 5 -53 9 -111 9 l-105 0 -139 -281z" fill="#005DAA" />
<path d="M6094 2166 c-32 -24 -7 -30 28 -7 27 17 29 21 12 21 -11 0 -29 -6 -40 -14z" fill="#005DAA" />
<path d="M2563 2034 l-62 -105 86 3 c58 2 88 7 91 16 3 9 -13 12 -57 12 -34 0 -61 3 -61 7 0 3 20 38 44 77 61 101 59 96 39 96 -12 0 -38 -35 -80 -106z" fill="#005DAA" />
<path d="M2860 2124 c-61 -26 -110 -86 -110 -134 0 -33 35 -60 80 -60 103 0 205 90 186 165 -11 44 -88 59 -156 29z m101 -14 c45 -25 3 -117 -68 -146 -44 -19 -66 -18 -94 5 l-24 19 22 45 c31 65 114 103 164 77z" fill="#005DAA" />
<path d="M3165 2049 c-67 -109 -72 -119 -52 -119 8 0 36 35 61 78 49 83 55 79 37 -30 -11 -68 5 -63 107 29 l84 77 -46 -74 c-25 -40 -44 -76 -41 -78 13 -13 39 17 94 107 57 95 59 101 37 101 -13 0 -29 -7 -36 -15 -7 -9 -49 -48 -93 -88 l-80 -72 7 50 c4 28 10 67 13 88 5 33 3 37 -15 37 -15 0 -36 -24 -77 -91z" fill="#005DAA" />
<path d="M3471 2041 c-34 -54 -61 -101 -61 -105 0 -3 6 -6 14 -6 12 0 136 188 136 205 0 3 -6 5 -14 5 -8 0 -42 -44 -75 -99z" fill="#005DAA" />
<path d="M3644 2130 c-12 -5 -29 -19 -37 -31 -21 -29 -8 -54 37 -69 46 -15 63 -35 46 -55 -29 -35 -140 -26 -126 10 4 10 -1 15 -14 15 -32 0 -27 -48 6 -60 61 -24 157 0 173 42 12 34 5 44 -50 66 -55 23 -64 47 -23 62 40 16 73 12 86 -10 7 -11 18 -20 25 -20 22 0 24 19 3 40 -21 21 -85 27 -126 10z" fill="#005DAA" />
<path d="M3811 2040 c-33 -55 -61 -103 -61 -105 0 -3 6 -5 14 -5 8 0 35 34 61 75 25 41 48 75 49 75 1 0 -1 -24 -5 -52 -11 -79 -10 -98 4 -98 8 0 51 35 97 78 88 81 90 77 13 -38 -20 -30 -21 -35 -7 -38 19 -5 11 -15 82 103 54 89 59 100 41 103 -14 2 -48 -23 -111 -83 -49 -47 -92 -84 -94 -82 -2 2 1 30 6 63 14 87 13 104 -9 104 -13 0 -37 -31 -80 -100z" fill="#005DAA" />
<path d="M4211 2129 c-73 -29 -134 -116 -111 -159 51 -95 260 -9 260 107 0 22 -7 37 -22 47 -25 18 -90 20 -127 5z m101 -26 c23 -21 23 -40 -2 -80 -20 -34 -85 -73 -120 -73 -60 0 -76 43 -37 100 41 60 121 87 159 53z" fill="#005DAA" />
<path d="M4515 2058 c-80 -131 -78 -128 -58 -128 10 0 30 20 45 45 l27 45 64 0 c80 0 130 28 135 77 4 36 -11 43 -103 43 l-60 0 -50 -82z m163 56 c29 -8 25 -31 -9 -56 -19 -14 -38 -18 -77 -16 l-52 3 25 38 c27 38 55 46 113 31z" fill="#005DAA" />
<path d="M4751 2041 c-34 -54 -61 -101 -61 -105 0 -3 45 -6 100 -6 81 0 100 3 100 15 0 11 -17 15 -75 17 l-75 3 20 33 c19 31 21 32 94 32 41 0 78 5 81 10 4 6 -20 10 -64 10 -39 0 -71 2 -71 5 0 2 5 16 12 30 11 24 15 25 88 25 57 0 81 4 90 15 11 13 1 15 -83 15 l-95 0 -61 -99z" fill="#005DAA" />
<path d="M5006 2058 c-27 -46 -56 -93 -64 -105 -13 -21 -13 -23 4 -23 12 1 30 19 46 45 25 41 30 45 68 45 39 0 40 -1 52 -45 9 -33 17 -45 31 -45 16 0 18 5 12 33 -4 17 -11 36 -16 42 -16 16 -10 23 25 29 48 9 84 57 65 87 -6 10 -33 15 -91 17 l-83 4 -49 -84z m178 56 c21 -8 20 -27 -3 -48 -14 -13 -33 -16 -80 -14 l-61 3 20 33 c17 28 25 32 64 32 24 0 51 -3 60 -6z" fill="#005DAA" />
<path d="M5359 2130 c-97 -29 -156 -145 -94 -186 35 -23 116 -13 167 21 49 32 85 104 68 135 -20 38 -76 50 -141 30z m92 -20 c23 -13 24 -41 4 -80 -32 -62 -127 -100 -165 -65 -25 23 -25 42 0 82 33 55 115 87 161 63z" fill="#005DAA" />
<path d="M5663 2067 c-24 -39 -52 -87 -64 -104 -20 -32 -20 -33 -2 -33 12 0 28 15 41 38 12 20 33 55 47 77 l26 40 -6 -50 c-3 -27 -8 -62 -11 -77 -9 -45 25 -35 81 23 54 55 114 102 100 78 -5 -7 -24 -37 -42 -66 -37 -59 -39 -63 -19 -63 12 0 136 187 136 204 0 3 -8 6 -18 6 -10 0 -59 -38 -109 -85 -50 -47 -93 -85 -96 -85 -2 0 -1 19 3 43 22 125 22 127 -2 127 -18 0 -33 -17 -65 -73z" fill="#005DAA" />
<path d="M6274 2130 c-12 -5 -29 -19 -37 -31 -21 -29 -8 -54 37 -69 46 -15 63 -35 46 -55 -29 -35 -140 -26 -126 10 4 10 -1 15 -14 15 -27 0 -27 -45 -1 -60 51 -27 164 0 180 42 12 34 5 44 -50 66 -28 12 -49 27 -49 36 0 37 91 50 112 16 7 -11 18 -20 25 -20 22 0 24 19 3 40 -21 21 -85 27 -126 10z" fill="#005DAA" />
<path d="M6542 2038 l-62 -103 70 -3 c89 -4 156 22 166 64 5 18 3 29 -5 32 -6 2 1 16 19 32 16 15 30 32 30 37 -1 27 -23 37 -87 41 l-68 4 -63 -104z m178 52 c0 -10 -9 -24 -19 -30 -20 -10 -111 -14 -111 -5 0 3 7 17 16 30 14 21 24 25 65 25 42 0 49 -3 49 -20z m-56 -66 c22 -8 20 -41 -3 -54 -11 -5 -45 -10 -75 -10 l-55 0 20 35 c18 30 26 35 59 35 21 0 45 -3 54 -6z" fill="#005DAA" />
<path d="M6811 2038 c-72 -68 -105 -104 -94 -106 8 -2 29 10 47 27 28 27 39 31 87 31 l56 0 -5 -30 c-3 -23 0 -30 12 -30 17 0 21 14 31 95 3 28 9 65 12 83 10 59 -28 41 -146 -70z m104 13 c-7 -40 -8 -41 -48 -41 l-41 0 44 45 c24 24 46 43 48 40 2 -2 1 -22 -3 -44z" fill="#005DAA" />
<path d="M7054 2073 c-90 -147 -88 -143 -67 -143 12 0 27 16 43 45 23 42 27 45 67 45 42 0 43 0 54 -45 8 -34 16 -45 30 -45 16 0 18 5 13 28 -4 15 -11 35 -15 44 -13 24 -12 25 25 32 48 9 84 57 65 87 -6 10 -33 15 -91 17 l-83 3 -41 -68z m170 41 c23 -9 20 -30 -6 -48 -22 -15 -138 -24 -138 -10 0 3 9 19 21 35 17 24 27 29 64 29 24 0 50 -3 59 -6z" fill="#005DAA" />
<path d="M7316 2035 c-76 -73 -103 -105 -89 -105 11 0 32 14 48 30 25 26 36 30 85 30 l57 0 -5 -30 c-3 -22 0 -30 11 -30 18 0 23 15 32 95 3 33 8 72 11 88 5 23 2 27 -18 27 -15 -1 -59 -35 -132 -105z m109 16 c-7 -40 -8 -41 -48 -41 l-41 0 44 45 c24 24 46 43 48 40 2 -2 1 -22 -3 -44z" fill="#005DAA" />
<path d="M7550 2125 c0 -10 11 -15 35 -15 19 0 35 -2 35 -5 0 -3 -23 -42 -50 -87 -28 -44 -48 -83 -45 -86 12 -12 37 15 83 93 l48 80 46 3 c29 2 48 8 52 18 4 12 -12 14 -99 14 -87 0 -105 -3 -105 -15z" fill="#005DAA" />
<path d="M7820 2124 c-61 -26 -110 -86 -110 -134 0 -33 35 -60 80 -60 123 0 235 125 170 190 -24 24 -89 26 -140 4z m101 -14 c48 -26 -3 -126 -77 -150 -69 -23 -118 14 -90 67 36 70 116 110 167 83z" fill="#005DAA" />
<path d="M5960 2030 c-78 -74 -100 -99 -84 -100 11 0 33 14 49 30 25 27 35 30 87 30 58 0 58 0 58 -30 0 -23 4 -30 20 -30 19 0 20 7 20 100 0 97 -1 100 -22 100 -15 0 -60 -36 -128 -100z m112 23 c-4 -43 -4 -43 -45 -43 l-41 0 44 45 c24 24 44 44 45 42 1 -1 0 -21 -3 -44z" fill="#005DAA" />
</g>
</svg>