<?xml version="1.0" standalone="no"?>
<!DOCTYPE svg PUBLIC "-//W3C//DTD SVG 20010904//EN"
 "http://www.w3.org/TR/2001/REC-SVG-20010904/DTD/svg10.dtd">
<svg version="1.0" xmlns="http://www.w3.org/2000/svg"
 width="2502.000000pt" height="400.000000pt" viewBox="0 0 2502.000000 400.000000"
 preserveAspectRatio="xMidYMid meet">

<g transform="translate(0.000000,400.000000) scale(0.100000,-0.100000)"
fill="#000000" stroke="none">
<path d="M13130 1830 l0 -1100 905 0 905 0 0 1100 0 1100 -905 0 -905 0 0
-1100z m956 463 c92 -49 140 -141 132 -250 -5 -76 -33 -131 -85 -168 -43 -31
-53 -45 -30 -45 22 0 87 -61 110 -103 33 -63 31 -194 -3 -262 -28 -55 -95
-107 -158 -125 -21 -5 -150 -10 -294 -10 l-258 0 0 496 0 495 273 -3 c259 -3
274 -4 313 -25z m484 -468 l0 -495 -65 0 -65 0 0 495 0 495 65 0 65 0 0 -495z"/>
<path d="M13627 2203 c-4 -3 -7 -73 -7 -154 l0 -148 55 -6 c31 -4 116 -4 189
0 153 8 187 21 213 82 20 49 13 134 -14 171 -39 54 -71 62 -259 62 -94 0 -174
-3 -177 -7z"/>
<path d="M13622 1613 l3 -168 185 0 c208 0 235 7 275 75 28 49 28 148 -1 186
-49 67 -57 69 -270 72 l-194 3 2 -168z"/>
<path d="M12760 1830 l0 -920 25 0 25 0 0 920 0 920 -25 0 -25 0 0 -920z"/>
<path d="M10588 2323 c-16 -4 -18 -32 -20 -355 l-3 -350 -235 351 -235 351
-77 0 -78 0 0 -495 0 -495 80 0 80 0 2 351 3 352 234 -352 234 -351 79 0 78 0
-2 498 -3 497 -60 2 c-33 0 -68 -1 -77 -4z"/>
<path d="M11125 2315 c-62 -23 -96 -44 -143 -89 -95 -89 -116 -175 -110 -438
4 -159 8 -190 27 -240 30 -76 106 -159 179 -195 52 -26 67 -28 167 -28 105 0
114 2 177 33 80 39 138 101 170 181 22 53 23 70 23 286 0 219 -1 233 -24 289
-30 75 -101 148 -179 184 -47 21 -74 27 -152 29 -65 2 -108 -2 -135 -12z m220
-152 c44 -22 65 -43 87 -87 45 -88 44 -415 -1 -504 -42 -82 -159 -124 -256
-92 -59 19 -113 74 -130 133 -21 70 -21 353 0 424 37 124 182 185 300 126z"/>
<path d="M12301 2313 c-5 -10 -61 -179 -125 -375 -64 -197 -119 -358 -121
-358 -2 0 -59 167 -125 370 l-121 370 -84 0 -84 0 64 -187 c64 -191 258 -753
270 -786 6 -15 18 -17 77 -15 l71 3 173 485 c96 267 174 491 174 498 0 8 -23
12 -80 12 -65 0 -81 -3 -89 -17z"/>
</g>
</svg>
